<svg width="102" height="54" viewBox="0 0 102 54" fill="none" xmlns="http://www.w3.org/2000/svg">
<path d="M50.5686 1C50.1642 1.59512 47.6569 4.33267 40.8628 10.5219C47.4529 11.4946 49.4831 13.6726 50.5686 20.0438C51.506 13.4277 53.2762 10.9821 60.2745 10.5219L50.5686 1Z" fill="white" stroke="#A480F2" stroke-width="0.3"/>
<path d="M60.2925 20.7776C59.0988 20.4881 57.4769 20.1837 55.8994 20.1315L56.0555 19.5027C57.7643 19.5194 60.0309 19.7836 61.8866 20.2068C62.8253 20.421 63.6498 20.7194 64.2101 21.0944C64.7713 21.4701 65.0333 21.896 64.9452 22.3721C64.8666 22.7793 64.5072 23.174 63.8217 23.5272C63.1406 23.8781 62.1676 24.1719 60.9254 24.391C54.1718 25.5484 46.921 25.4557 40.1604 24.324C38.8591 24.0712 37.7941 23.7349 37.0821 23.3378C36.3591 22.9345 36.0604 22.5063 36.1369 22.0807C36.2354 21.5926 36.6389 21.1537 37.2846 20.7919C37.9276 20.4316 38.7871 20.1618 39.7451 20.0035L39.7452 20.0036L39.7479 20.003C41.5625 19.6689 43.8334 19.5681 45.6096 19.5649C45.5854 19.6849 45.5626 19.8152 45.5396 19.9474C45.5269 20.0205 45.514 20.0942 45.5008 20.1671C44.2423 20.1682 42.6979 20.28 41.568 20.4541L41.568 20.4541L41.5642 20.4547C40.9305 20.5688 39.97 20.7774 39.1481 21.0462C38.7379 21.1803 38.3555 21.3315 38.0642 21.4966C37.9186 21.5792 37.7905 21.6681 37.6923 21.764C37.5949 21.8592 37.5176 21.9705 37.4923 22.0981L37.4923 22.0981L37.4918 22.1012C37.4665 22.2444 37.5151 22.3738 37.6 22.4824C37.6829 22.5884 37.8052 22.6815 37.948 22.7649C38.2342 22.9319 38.6407 23.0808 39.1005 23.214C40.0228 23.4813 41.2018 23.6974 42.1684 23.8647L42.1684 23.8647L42.1701 23.865C44.0523 24.1694 47.1047 24.3853 50.4861 24.4645L50.4861 24.4645L50.4882 24.4645C53.2464 24.49 56.2413 24.373 58.372 24.0391L58.3729 24.0389C59.4615 23.8614 60.7165 23.6377 61.7206 23.3597C62.222 23.2209 62.6684 23.0665 63.0024 22.894C63.1695 22.8077 63.3141 22.714 63.4244 22.6112C63.5343 22.5086 63.6186 22.3888 63.6467 22.2504L63.6468 22.2504L63.6475 22.2463C63.6685 22.1259 63.6151 22.0219 63.5475 21.9433C63.4797 21.8645 63.3829 21.7931 63.2732 21.7279C63.0526 21.5969 62.7446 21.4708 62.4057 21.3542C61.7257 21.1202 60.8884 20.9133 60.2925 20.7776Z" fill="white" stroke="#A480F2" stroke-width="0.3"/>
<mask id="path-3-outside-1_59_37" maskUnits="userSpaceOnUse" x="5" y="35" width="90" height="14" fill="black">
<rect fill="white" x="5" y="35" width="90" height="14"/>
<path d="M22.7388 48H19.4988L18.0108 45.288H10.1628L8.72278 48H5.84278L12.8508 35.616H15.6348L22.7388 48ZM16.8108 43.056L14.1468 38.016L11.3868 43.056H16.8108ZM39.0224 48H34.8944L29.9024 43.32H27.1664V48H24.3344V35.616H34.9424C36.7984 35.616 37.7264 36.416 37.7264 38.016V40.92C37.7264 42.12 37.2464 42.864 36.2864 43.152C35.9184 43.264 34.9264 43.32 33.3104 43.32L39.0224 48ZM34.9424 40.224V38.736C34.9424 38.32 34.8224 38.048 34.5824 37.92C34.4064 37.808 34.0944 37.752 33.6464 37.752H27.1664V41.208H33.6464C34.0944 41.208 34.4064 41.152 34.5824 41.04C34.8224 40.912 34.9424 40.64 34.9424 40.224ZM44.0566 48H41.1766V35.616H44.0566V48ZM61.4275 45.072C61.4275 46.224 61.2035 47 60.7555 47.4C60.3075 47.8 59.4995 48 58.3315 48H50.6755C49.4115 48 48.5795 47.776 48.1795 47.328C47.7795 46.88 47.5795 46.016 47.5795 44.736L50.1235 44.208V45.672H58.8835V42.84H51.1555C49.9875 42.84 49.1795 42.64 48.7315 42.24C48.2995 41.84 48.0835 41.064 48.0835 39.912V38.544C48.0835 37.392 48.2995 36.616 48.7315 36.216C49.1795 35.816 49.9875 35.616 51.1555 35.616H58.1875C59.3715 35.616 60.1795 35.824 60.6115 36.24C61.0435 36.64 61.2595 37.424 61.2595 38.592L58.7155 39.192V37.776H50.6035V40.44H58.3315C59.4995 40.44 60.3075 40.64 60.7555 41.04C61.2035 41.44 61.4275 42.216 61.4275 43.368V45.072ZM77.7858 48H64.9938V35.616H77.6658V37.728H67.8738V40.488H73.5858V42.6H67.8738V45.672H77.7858V48ZM94.151 45.072C94.151 46.224 93.927 47 93.479 47.4C93.031 47.8 92.223 48 91.055 48H83.399C82.135 48 81.303 47.776 80.903 47.328C80.503 46.88 80.303 46.016 80.303 44.736L82.847 44.208V45.672H91.607V42.84H83.879C82.711 42.84 81.903 42.64 81.455 42.24C81.023 41.84 80.807 41.064 80.807 39.912V38.544C80.807 37.392 81.023 36.616 81.455 36.216C81.903 35.816 82.711 35.616 83.879 35.616H90.911C92.095 35.616 92.903 35.824 93.335 36.24C93.767 36.64 93.983 37.424 93.983 38.592L91.439 39.192V37.776H83.327V40.44H91.055C92.223 40.44 93.031 40.64 93.479 41.04C93.927 41.44 94.151 42.216 94.151 43.368V45.072Z"/>
</mask>
<path d="M22.7388 48H19.4988L18.0108 45.288H10.1628L8.72278 48H5.84278L12.8508 35.616H15.6348L22.7388 48ZM16.8108 43.056L14.1468 38.016L11.3868 43.056H16.8108ZM39.0224 48H34.8944L29.9024 43.32H27.1664V48H24.3344V35.616H34.9424C36.7984 35.616 37.7264 36.416 37.7264 38.016V40.92C37.7264 42.12 37.2464 42.864 36.2864 43.152C35.9184 43.264 34.9264 43.32 33.3104 43.32L39.0224 48ZM34.9424 40.224V38.736C34.9424 38.32 34.8224 38.048 34.5824 37.92C34.4064 37.808 34.0944 37.752 33.6464 37.752H27.1664V41.208H33.6464C34.0944 41.208 34.4064 41.152 34.5824 41.04C34.8224 40.912 34.9424 40.64 34.9424 40.224ZM44.0566 48H41.1766V35.616H44.0566V48ZM61.4275 45.072C61.4275 46.224 61.2035 47 60.7555 47.4C60.3075 47.8 59.4995 48 58.3315 48H50.6755C49.4115 48 48.5795 47.776 48.1795 47.328C47.7795 46.88 47.5795 46.016 47.5795 44.736L50.1235 44.208V45.672H58.8835V42.84H51.1555C49.9875 42.84 49.1795 42.64 48.7315 42.24C48.2995 41.84 48.0835 41.064 48.0835 39.912V38.544C48.0835 37.392 48.2995 36.616 48.7315 36.216C49.1795 35.816 49.9875 35.616 51.1555 35.616H58.1875C59.3715 35.616 60.1795 35.824 60.6115 36.24C61.0435 36.64 61.2595 37.424 61.2595 38.592L58.7155 39.192V37.776H50.6035V40.44H58.3315C59.4995 40.44 60.3075 40.64 60.7555 41.04C61.2035 41.44 61.4275 42.216 61.4275 43.368V45.072ZM77.7858 48H64.9938V35.616H77.6658V37.728H67.8738V40.488H73.5858V42.6H67.8738V45.672H77.7858V48ZM94.151 45.072C94.151 46.224 93.927 47 93.479 47.4C93.031 47.8 92.223 48 91.055 48H83.399C82.135 48 81.303 47.776 80.903 47.328C80.503 46.88 80.303 46.016 80.303 44.736L82.847 44.208V45.672H91.607V42.84H83.879C82.711 42.84 81.903 42.64 81.455 42.24C81.023 41.84 80.807 41.064 80.807 39.912V38.544C80.807 37.392 81.023 36.616 81.455 36.216C81.903 35.816 82.711 35.616 83.879 35.616H90.911C92.095 35.616 92.903 35.824 93.335 36.24C93.767 36.64 93.983 37.424 93.983 38.592L91.439 39.192V37.776H83.327V40.44H91.055C92.223 40.44 93.031 40.64 93.479 41.04C93.927 41.44 94.151 42.216 94.151 43.368V45.072Z" fill="#F7F7F7"/>
<path d="M22.7388 48V48.3H23.2567L22.999 47.8507L22.7388 48ZM19.4988 48L19.2358 48.1443L19.3212 48.3H19.4988V48ZM18.0108 45.288L18.2738 45.1437L18.1884 44.988H18.0108V45.288ZM10.1628 45.288V44.988H9.98241L9.89782 45.1473L10.1628 45.288ZM8.72278 48V48.3H8.90316L8.98775 48.1407L8.72278 48ZM5.84278 48L5.58169 47.8522L5.32831 48.3H5.84278V48ZM12.8508 35.616V35.316H12.6758L12.5897 35.4682L12.8508 35.616ZM15.6348 35.616L15.895 35.4667L15.8085 35.316H15.6348V35.616ZM16.8108 43.056V43.356H17.3087L17.076 42.9158L16.8108 43.056ZM14.1468 38.016L14.412 37.8758L14.1515 37.3829L13.8837 37.8719L14.1468 38.016ZM11.3868 43.056L11.1237 42.9119L10.8805 43.356H11.3868V43.056ZM22.7388 47.7H19.4988V48.3H22.7388V47.7ZM19.7618 47.8557L18.2738 45.1437L17.7478 45.4323L19.2358 48.1443L19.7618 47.8557ZM18.0108 44.988H10.1628V45.588H18.0108V44.988ZM9.89782 45.1473L8.45782 47.8593L8.98775 48.1407L10.4277 45.4287L9.89782 45.1473ZM8.72278 47.7H5.84278V48.3H8.72278V47.7ZM6.10387 48.1478L13.1119 35.7637L12.5897 35.4682L5.58169 47.8522L6.10387 48.1478ZM12.8508 35.916H15.6348V35.316H12.8508V35.916ZM15.3746 35.7653L22.4786 48.1493L22.999 47.8507L15.895 35.4667L15.3746 35.7653ZM17.076 42.9158L14.412 37.8758L13.8816 38.1562L16.5456 43.1962L17.076 42.9158ZM13.8837 37.8719L11.1237 42.9119L11.6499 43.2001L14.4099 38.1601L13.8837 37.8719ZM11.3868 43.356H16.8108V42.756H11.3868V43.356ZM39.0224 48V48.3H39.8619L39.2125 47.7679L39.0224 48ZM34.8944 48L34.6892 48.2189L34.7758 48.3H34.8944V48ZM29.9024 43.32L30.1076 43.1011L30.021 43.02H29.9024V43.32ZM27.1664 43.32V43.02H26.8664V43.32H27.1664ZM27.1664 48V48.3H27.4664V48H27.1664ZM24.3344 48H24.0344V48.3H24.3344V48ZM24.3344 35.616V35.316H24.0344V35.616H24.3344ZM36.2864 43.152L36.2002 42.8646L36.1991 42.865L36.2864 43.152ZM33.3104 43.32V43.02H32.4709L33.1203 43.5521L33.3104 43.32ZM34.5824 37.92L34.4213 38.1731L34.4311 38.1793L34.4412 38.1847L34.5824 37.92ZM27.1664 37.752V37.452H26.8664V37.752H27.1664ZM27.1664 41.208H26.8664V41.508H27.1664V41.208ZM34.5824 41.04L34.4412 40.7753L34.4311 40.7807L34.4213 40.7869L34.5824 41.04ZM39.0224 47.7H34.8944V48.3H39.0224V47.7ZM35.0996 47.7811L30.1076 43.1011L29.6972 43.5389L34.6892 48.2189L35.0996 47.7811ZM29.9024 43.02H27.1664V43.62H29.9024V43.02ZM26.8664 43.32V48H27.4664V43.32H26.8664ZM27.1664 47.7H24.3344V48.3H27.1664V47.7ZM24.6344 48V35.616H24.0344V48H24.6344ZM24.3344 35.916H34.9424V35.316H24.3344V35.916ZM34.9424 35.916C35.8342 35.916 36.447 36.1091 36.8345 36.4432C37.2135 36.77 37.4264 37.2748 37.4264 38.016H38.0264C38.0264 37.1572 37.7753 36.462 37.2263 35.9888C36.6858 35.5229 35.9066 35.316 34.9424 35.316V35.916ZM37.4264 38.016V40.92H38.0264V38.016H37.4264ZM37.4264 40.92C37.4264 41.4822 37.3138 41.9062 37.1143 42.2154C36.9181 42.5195 36.6214 42.7383 36.2002 42.8647L36.3726 43.4393C36.9114 43.2777 37.3347 42.9805 37.6185 42.5406C37.8991 42.1058 38.0264 41.5578 38.0264 40.92H37.4264ZM36.1991 42.865C36.0539 42.9092 35.7476 42.9504 35.2495 42.9785C34.7615 43.006 34.1158 43.02 33.3104 43.02V43.62C34.121 43.62 34.7793 43.606 35.2833 43.5775C35.7772 43.5496 36.1509 43.5068 36.3738 43.439L36.1991 42.865ZM33.1203 43.5521L38.8323 48.2321L39.2125 47.7679L33.5005 43.0879L33.1203 43.5521ZM35.2424 40.224V38.736H34.6424V40.224H35.2424ZM35.2424 38.736C35.2424 38.2734 35.1073 37.8599 34.7236 37.6553L34.4412 38.1847C34.5375 38.2361 34.6424 38.3666 34.6424 38.736H35.2424ZM34.7435 37.6669C34.489 37.5049 34.0995 37.452 33.6464 37.452V38.052C34.0893 38.052 34.3238 38.1111 34.4213 38.1731L34.7435 37.6669ZM33.6464 37.452H27.1664V38.052H33.6464V37.452ZM26.8664 37.752V41.208H27.4664V37.752H26.8664ZM27.1664 41.508H33.6464V40.908H27.1664V41.508ZM33.6464 41.508C34.0995 41.508 34.489 41.4551 34.7435 41.2931L34.4213 40.7869C34.3238 40.8489 34.0893 40.908 33.6464 40.908V41.508ZM34.7236 41.3047C35.1073 41.1001 35.2424 40.6866 35.2424 40.224H34.6424C34.6424 40.5934 34.5375 40.7239 34.4412 40.7753L34.7236 41.3047ZM44.0566 48V48.3H44.3566V48H44.0566ZM41.1766 48H40.8766V48.3H41.1766V48ZM41.1766 35.616V35.316H40.8766V35.616H41.1766ZM44.0566 35.616H44.3566V35.316H44.0566V35.616ZM44.0566 47.7H41.1766V48.3H44.0566V47.7ZM41.4766 48V35.616H40.8766V48H41.4766ZM41.1766 35.916H44.0566V35.316H41.1766V35.916ZM43.7566 35.616V48H44.3566V35.616H43.7566ZM60.7555 47.4L60.5557 47.1762L60.7555 47.4ZM48.1795 47.328L47.9557 47.5278L48.1795 47.328ZM47.5795 44.736L47.5186 44.4423L47.2795 44.4919V44.736H47.5795ZM50.1235 44.208H50.4235V43.8393L50.0626 43.9143L50.1235 44.208ZM50.1235 45.672H49.8235V45.972H50.1235V45.672ZM58.8835 45.672V45.972H59.1835V45.672H58.8835ZM58.8835 42.84H59.1835V42.54H58.8835V42.84ZM48.7315 42.24L48.5277 42.4602L48.5317 42.4638L48.7315 42.24ZM48.7315 36.216L48.5317 35.9922L48.5277 35.9959L48.7315 36.216ZM60.6115 36.24L60.4034 36.4561L60.4077 36.4601L60.6115 36.24ZM61.2595 38.592L61.3284 38.884L61.5595 38.8295V38.592H61.2595ZM58.7155 39.192H58.4155V39.571L58.7844 39.484L58.7155 39.192ZM58.7155 37.776H59.0155V37.476H58.7155V37.776ZM50.6035 37.776V37.476H50.3035V37.776H50.6035ZM50.6035 40.44H50.3035V40.74H50.6035V40.44ZM61.1275 45.072C61.1275 46.2092 60.9015 46.8675 60.5557 47.1762L60.9553 47.6238C61.5055 47.1325 61.7275 46.2388 61.7275 45.072H61.1275ZM60.5557 47.1762C60.1953 47.498 59.4861 47.7 58.3315 47.7V48.3C59.5129 48.3 60.4198 48.102 60.9553 47.6238L60.5557 47.1762ZM58.3315 47.7H50.6755V48.3H58.3315V47.7ZM50.6755 47.7C50.0588 47.7 49.5633 47.6451 49.1815 47.5423C48.7985 47.4392 48.551 47.2936 48.4033 47.1282L47.9557 47.5278C48.208 47.8104 48.5765 48.0008 49.0255 48.1217C49.4758 48.2429 50.0282 48.3 50.6755 48.3V47.7ZM48.4033 47.1282C48.2491 46.9555 48.1155 46.6809 48.0218 46.2763C47.9286 45.8739 47.8795 45.3623 47.8795 44.736H47.2795C47.2795 45.3897 47.3304 45.9501 47.4373 46.4117C47.5436 46.8711 47.7099 47.2525 47.9557 47.5278L48.4033 47.1282ZM47.6405 45.0297L50.1845 44.5017L50.0626 43.9143L47.5186 44.4423L47.6405 45.0297ZM49.8235 44.208V45.672H50.4235V44.208H49.8235ZM50.1235 45.972H58.8835V45.372H50.1235V45.972ZM59.1835 45.672V42.84H58.5835V45.672H59.1835ZM58.8835 42.54H51.1555V43.14H58.8835V42.54ZM51.1555 42.54C50.0009 42.54 49.2918 42.338 48.9313 42.0162L48.5317 42.4638C49.0673 42.942 49.9741 43.14 51.1555 43.14V42.54ZM48.9354 42.0199C48.6023 41.7115 48.3835 41.0514 48.3835 39.912H47.7835C47.7835 41.0766 47.9968 41.9685 48.5277 42.4601L48.9354 42.0199ZM48.3835 39.912V38.544H47.7835V39.912H48.3835ZM48.3835 38.544C48.3835 37.4046 48.6023 36.7445 48.9354 36.4361L48.5277 35.9959C47.9968 36.4875 47.7835 37.3794 47.7835 38.544H48.3835ZM48.9313 36.4398C49.2918 36.118 50.0009 35.916 51.1555 35.916V35.316C49.9741 35.316 49.0673 35.514 48.5317 35.9922L48.9313 36.4398ZM51.1555 35.916H58.1875V35.316H51.1555V35.916ZM58.1875 35.916C59.3596 35.916 60.0614 36.1267 60.4034 36.4561L60.8196 36.0239C60.2977 35.5213 59.3835 35.316 58.1875 35.316V35.916ZM60.4077 36.4601C60.7402 36.768 60.9595 37.4351 60.9595 38.592H61.5595C61.5595 37.4129 61.3469 36.512 60.8154 36.0199L60.4077 36.4601ZM61.1907 38.3L58.6467 38.9L58.7844 39.484L61.3284 38.884L61.1907 38.3ZM59.0155 39.192V37.776H58.4155V39.192H59.0155ZM58.7155 37.476H50.6035V38.076H58.7155V37.476ZM50.3035 37.776V40.44H50.9035V37.776H50.3035ZM50.6035 40.74H58.3315V40.14H50.6035V40.74ZM58.3315 40.74C59.4861 40.74 60.1953 40.942 60.5557 41.2638L60.9553 40.8162C60.4198 40.338 59.5129 40.14 58.3315 40.14V40.74ZM60.5557 41.2638C60.9015 41.5725 61.1275 42.2308 61.1275 43.368H61.7275C61.7275 42.2012 61.5055 41.3075 60.9553 40.8162L60.5557 41.2638ZM61.1275 43.368V45.072H61.7275V43.368H61.1275ZM77.7858 48V48.3H78.0858V48H77.7858ZM64.9938 48H64.6938V48.3H64.9938V48ZM64.9938 35.616V35.316H64.6938V35.616H64.9938ZM77.6658 35.616H77.9658V35.316H77.6658V35.616ZM77.6658 37.728V38.028H77.9658V37.728H77.6658ZM67.8738 37.728V37.428H67.5738V37.728H67.8738ZM67.8738 40.488H67.5738V40.788H67.8738V40.488ZM73.5858 40.488H73.8858V40.188H73.5858V40.488ZM73.5858 42.6V42.9H73.8858V42.6H73.5858ZM67.8738 42.6V42.3H67.5738V42.6H67.8738ZM67.8738 45.672H67.5738V45.972H67.8738V45.672ZM77.7858 45.672H78.0858V45.372H77.7858V45.672ZM77.7858 47.7H64.9938V48.3H77.7858V47.7ZM65.2938 48V35.616H64.6938V48H65.2938ZM64.9938 35.916H77.6658V35.316H64.9938V35.916ZM77.3658 35.616V37.728H77.9658V35.616H77.3658ZM77.6658 37.428H67.8738V38.028H77.6658V37.428ZM67.5738 37.728V40.488H68.1738V37.728H67.5738ZM67.8738 40.788H73.5858V40.188H67.8738V40.788ZM73.2858 40.488V42.6H73.8858V40.488H73.2858ZM73.5858 42.3H67.8738V42.9H73.5858V42.3ZM67.5738 42.6V45.672H68.1738V42.6H67.5738ZM67.8738 45.972H77.7858V45.372H67.8738V45.972ZM77.4858 45.672V48H78.0858V45.672H77.4858ZM93.479 47.4L93.2792 47.1762L93.479 47.4ZM80.903 47.328L80.6792 47.5278L80.903 47.328ZM80.303 44.736L80.242 44.4423L80.003 44.4919V44.736H80.303ZM82.847 44.208H83.147V43.8393L82.786 43.9143L82.847 44.208ZM82.847 45.672H82.547V45.972H82.847V45.672ZM91.607 45.672V45.972H91.907V45.672H91.607ZM91.607 42.84H91.907V42.54H91.607V42.84ZM81.455 42.24L81.2511 42.4602L81.2552 42.4638L81.455 42.24ZM81.455 36.216L81.2551 35.9922L81.2511 35.9959L81.455 36.216ZM93.335 36.24L93.1268 36.4561L93.1311 36.4601L93.335 36.24ZM93.983 38.592L94.0518 38.884L94.283 38.8295V38.592H93.983ZM91.439 39.192H91.139V39.571L91.5078 39.484L91.439 39.192ZM91.439 37.776H91.739V37.476H91.439V37.776ZM83.327 37.776V37.476H83.027V37.776H83.327ZM83.327 40.44H83.027V40.74H83.327V40.44ZM93.851 45.072C93.851 46.2092 93.625 46.8675 93.2792 47.1762L93.6788 47.6238C94.229 47.1325 94.451 46.2388 94.451 45.072H93.851ZM93.2792 47.1762C92.9187 47.498 92.2096 47.7 91.055 47.7V48.3C92.2364 48.3 93.1432 48.102 93.6788 47.6238L93.2792 47.1762ZM91.055 47.7H83.399V48.3H91.055V47.7ZM83.399 47.7C82.7822 47.7 82.2867 47.6451 81.905 47.5423C81.5219 47.4392 81.2745 47.2936 81.1267 47.1282L80.6792 47.5278C80.9315 47.8104 81.3 48.0008 81.749 48.1217C82.1992 48.2429 82.7517 48.3 83.399 48.3V47.7ZM81.1267 47.1282C80.9726 46.9555 80.8389 46.6809 80.7452 46.2763C80.6521 45.8739 80.603 45.3623 80.603 44.736H80.003C80.003 45.3897 80.0538 45.9501 80.1607 46.4117C80.267 46.8711 80.4334 47.2525 80.6792 47.5278L81.1267 47.1282ZM80.3639 45.0297L82.9079 44.5017L82.786 43.9143L80.242 44.4423L80.3639 45.0297ZM82.547 44.208V45.672H83.147V44.208H82.547ZM82.847 45.972H91.607V45.372H82.847V45.972ZM91.907 45.672V42.84H91.307V45.672H91.907ZM91.607 42.54H83.879V43.14H91.607V42.54ZM83.879 42.54C82.7243 42.54 82.0152 42.338 81.6548 42.0162L81.2552 42.4638C81.7907 42.942 82.6976 43.14 83.879 43.14V42.54ZM81.6588 42.0199C81.3257 41.7115 81.107 41.0514 81.107 39.912H80.507C80.507 41.0766 80.7202 41.9685 81.2511 42.4601L81.6588 42.0199ZM81.107 39.912V38.544H80.507V39.912H81.107ZM81.107 38.544C81.107 37.4046 81.3257 36.7445 81.6588 36.4361L81.2511 35.9959C80.7202 36.4875 80.507 37.3794 80.507 38.544H81.107ZM81.6548 36.4398C82.0152 36.118 82.7243 35.916 83.879 35.916V35.316C82.6976 35.316 81.7907 35.514 81.2552 35.9922L81.6548 36.4398ZM83.879 35.916H90.911V35.316H83.879V35.916ZM90.911 35.916C92.083 35.916 92.7848 36.1267 93.1269 36.4561L93.5431 36.0239C93.0211 35.5213 92.1069 35.316 90.911 35.316V35.916ZM93.1311 36.4601C93.4636 36.768 93.683 37.4351 93.683 38.592H94.283C94.283 37.4129 94.0703 36.512 93.5388 36.0199L93.1311 36.4601ZM93.9141 38.3L91.3701 38.9L91.5078 39.484L94.0518 38.884L93.9141 38.3ZM91.739 39.192V37.776H91.139V39.192H91.739ZM91.439 37.476H83.327V38.076H91.439V37.476ZM83.027 37.776V40.44H83.627V37.776H83.027ZM83.327 40.74H91.055V40.14H83.327V40.74ZM91.055 40.74C92.2096 40.74 92.9187 40.942 93.2792 41.2638L93.6788 40.8162C93.1432 40.338 92.2364 40.14 91.055 40.14V40.74ZM93.2792 41.2638C93.625 41.5725 93.851 42.2308 93.851 43.368H94.451C94.451 42.2012 94.229 41.3075 93.6788 40.8162L93.2792 41.2638ZM93.851 43.368V45.072H94.451V43.368H93.851Z" fill="#A480F2" mask="url(#path-3-outside-1_59_37)"/>
</svg>
